<svg width="1024" height="1024" viewBox="0 0 1024 1024" fill="none" xmlns="http://www.w3.org/2000/svg">
  <rect width="1024" height="1024" rx="232" fill="#F7FAFC"/>
  <circle cx="512" cy="512" r="178" fill="#1677FF"/>
  <circle cx="512" cy="512" r="112" fill="#F7FAFC"/>
  <path d="M512 356C598.156 356 668 425.844 668 512C668 598.156 598.156 668 512 668C425.844 668 356 598.156 356 512C356 425.844 425.844 356 512 356ZM512 410C455.667 410 410 455.667 410 512C410 568.333 455.667 614 512 614C568.333 614 614 568.333 614 512C614 455.667 568.333 410 512 410Z" fill="#0B5FD3"/>
  <path d="M500 467C500 458.716 506.716 452 515 452H548C584.451 452 614 481.549 614 518C614 554.451 584.451 584 548 584H515C506.716 584 500 577.284 500 569V467Z" fill="#1677FF"/>
  <path d="M470 467C470 458.716 476.716 452 485 452H515V584H485C476.716 584 470 577.284 470 569V467Z" fill="#0B5FD3"/>

  <circle cx="228" cy="512" r="82" fill="#0F172A"/>
  <circle cx="228" cy="512" r="42" fill="#F7FAFC"/>
  <path d="M222 487C222 480.925 226.925 476 233 476H250C269.882 476 286 492.118 286 512C286 531.882 269.882 548 250 548H233C226.925 548 222 543.075 222 537V487Z" fill="#0F172A"/>
  <path d="M196 487C196 480.925 200.925 476 207 476H233V548H207C200.925 548 196 543.075 196 537V487Z" fill="#1677FF"/>

  <circle cx="796" cy="512" r="82" fill="#0F172A"/>
  <circle cx="796" cy="512" r="42" fill="#F7FAFC"/>
  <path d="M790 487C790 480.925 794.925 476 801 476H818C837.882 476 854 492.118 854 512C854 531.882 837.882 548 818 548H801C794.925 548 790 543.075 790 537V487Z" fill="#0F172A"/>
  <path d="M764 487C764 480.925 768.925 476 775 476H801V548H775C768.925 548 764 543.075 764 537V487Z" fill="#1677FF"/>

  <path d="M333 476H392C407.464 476 420 488.536 420 504C420 519.464 407.464 532 392 532H333V576L250 504L333 432V476Z" fill="#22C55E"/>
  <path d="M691 548H632C616.536 548 604 535.464 604 520C604 504.536 616.536 492 632 492H691V448L774 520L691 592V548Z" fill="#22C55E"/>

  <path d="M318 704H706" stroke="#CBD5E1" stroke-width="28" stroke-linecap="round"/>
  <circle cx="512" cy="704" r="34" fill="#1677FF"/>
  <circle cx="318" cy="704" r="26" fill="#0F172A"/>
  <circle cx="706" cy="704" r="26" fill="#0F172A"/>
</svg>
